<svg width="320" height="360" viewBox="0 0 320 360" fill="none" xmlns="http://www.w3.org/2000/svg">
<path d="M186.41 133C200.41 124.6 233.91 90.1667 248.91 74H277.91L305.91 142C296.244 141.667 268.81 147.5 236.41 173.5C200.41 214 168.91 143.5 186.41 133Z" stroke="#434EC7" stroke-width="2"/>
<path d="M164.41 189.5C126.41 139.1 190.244 83.8333 226.91 62.5L318.41 69L295.41 166.5C267.577 195.167 202.41 239.9 164.41 189.5Z" stroke="#434EC7" stroke-width="2"/>
<path d="M146.91 217.5C85.7103 138.7 154.077 71 195.91 47L294.41 66V206C266.91 229.167 198.91 263.9 146.91 217.5Z" stroke="#434EC7" stroke-width="2"/>
<path d="M129.91 236C55.1103 163.6 107.077 79.8333 142.41 47H317.41V223.5C286.077 257.833 204.71 308.4 129.91 236Z" stroke="#434EC7" stroke-width="2"/>
<path d="M115.91 271C30.7104 187 69.4104 88.3333 99.4104 49.5L312.91 20.5V271C287.41 293.667 212.31 325.4 115.91 271Z" stroke="#434EC7" stroke-width="2"/>
<path d="M105.41 300C-0.989685 224 30.077 106 58.9103 56.5L291.91 32V318.5C261.744 328.833 182.21 339.6 105.41 300Z" stroke="#434EC7" stroke-width="2"/>
<path d="M77.4103 316C-30.9897 226 -0.756334 103.833 27.9103 54L309.41 2L303.41 352C258.577 362 150.61 368.8 77.4103 316Z" stroke="#434EC7" stroke-width="2"/>
</svg>
